<svg width="1920" height="966" viewBox="0 0 1920 966" fill="none" xmlns="http://www.w3.org/2000/svg">
<circle cx="339.5" cy="626.5" r="339.5" fill="#1820EF"/>
<circle cx="1670.5" cy="716.5" r="249.5" fill="#1820EF"/>
<circle cx="874" cy="357" r="260" fill="#1820EF"/>
<circle cx="1395" cy="330" r="233" fill="#1820EF"/>
<circle cx="1184.5" cy="735.5" r="230.5" fill="#1820EF"/>
<circle cx="528.5" cy="214.5" r="115.5" fill="#1820EF"/>
<circle cx="1142" cy="137" r="87" fill="#1820EF"/>
<circle cx="1144" cy="476" r="31" fill="#1820EF"/>
<circle cx="928.5" cy="654.5" r="37.5" fill="#1820EF"/>
<circle cx="61.5" cy="923.5" r="37.5" fill="#1820EF"/>
<circle cx="1420.5" cy="910.5" r="42.5" fill="#1820EF"/>
<circle cx="37.5" cy="355.5" r="37.5" fill="#1820EF"/>
<circle cx="351.5" cy="235.5" r="37.5" fill="#1820EF"/>
<circle cx="377.5" cy="136.5" r="37.5" fill="#1820EF"/>
<circle cx="314.5" cy="37.5" r="37.5" fill="#1820EF"/>
<circle cx="583.5" cy="350.5" r="27.5" fill="#1820EF"/>
<circle cx="698" cy="580" r="19" fill="#1820EF"/>
<circle cx="741.5" cy="626.5" r="24.5" fill="#1820EF"/>
<circle cx="611.5" cy="875.5" r="26.5" fill="#1820EF"/>
<circle cx="1151" cy="417" r="22" fill="#1820EF"/>
<circle cx="1251" cy="119" r="22" fill="#1820EF"/>
<circle cx="1293" cy="89" r="22" fill="#1820EF"/>
<circle cx="1532" cy="111" r="22" fill="#1820EF"/>
<circle cx="1876" cy="509" r="22" fill="#1820EF"/>
<circle cx="1415" cy="605" r="22" fill="#1820EF"/>
<circle cx="1876" cy="213" r="22" fill="#1820EF"/>
<circle cx="1024" cy="115" r="22" fill="#1820EF"/>
<circle cx="1144" cy="254" r="22" fill="#1820EF"/>
<circle cx="802.5" cy="807.5" r="158.5" fill="#1820EF"/>
<circle cx="157" cy="169" r="157" fill="#1820EF"/>
<circle cx="1777" cy="344" r="138" fill="#1820EF"/>
<circle cx="1664" cy="129" r="106" fill="#1820EF"/>
<path d="M1449.89 775.081L1537.83 636.207L1585.55 648.295L1596.55 812.239L1557.76 802.411L1554.28 672.383L1553.86 672.278L1488.68 784.909L1449.89 775.081ZM1490.18 751.956L1497.7 722.291L1579.64 743.051L1572.13 772.716L1490.18 751.956Z" fill="white"/>
<path d="M1627.1 812.858L1624.49 656.659L1661.94 656.033L1664.02 780.778L1741.48 779.483L1742 810.936L1627.1 812.858Z" fill="white"/>
<path d="M1775.8 805.144L1734.91 654.371L1771.05 644.568L1803.71 764.979L1878.48 744.701L1886.71 775.062L1775.8 805.144Z" fill="white"/>
<path d="M29.165 187V148.31H41.461C47.3617 148.31 51.7607 149.441 54.658 151.702C57.5907 153.963 59.057 157.391 59.057 161.984C59.057 166.436 57.679 169.828 54.923 172.16C52.167 174.457 48.1214 175.605 42.786 175.605H33.67V168.185H41.673C44.4997 168.185 46.5667 167.69 47.874 166.701C49.1814 165.712 49.835 164.139 49.835 161.984C49.835 159.829 49.1814 158.256 47.874 157.267C46.5667 156.242 44.4997 155.73 41.673 155.73H38.175V187H29.165ZM82.3348 187.53C78.1655 187.53 74.5791 186.735 71.5758 185.145C68.5725 183.555 66.2581 181.276 64.6328 178.308C63.0428 175.34 62.2478 171.789 62.2478 167.655C62.2478 163.521 63.0428 159.97 64.6328 157.002C66.2581 154.034 68.5725 151.755 71.5758 150.165C74.5791 148.575 78.1655 147.78 82.3348 147.78C86.5041 147.78 90.0728 148.575 93.0408 150.165C96.0441 151.755 98.3408 154.034 99.9308 157.002C101.556 159.97 102.369 163.521 102.369 167.655C102.369 171.789 101.556 175.34 99.9308 178.308C98.3408 181.276 96.0441 183.555 93.0408 185.145C90.0728 186.735 86.5041 187.53 82.3348 187.53ZM82.3348 179.739C84.6315 179.739 86.5925 179.28 88.2178 178.361C89.8431 177.407 91.0621 176.047 91.8748 174.28C92.7228 172.478 93.1468 170.27 93.1468 167.655C93.1468 165.04 92.7228 162.85 91.8748 161.083C91.0621 159.281 89.8431 157.921 88.2178 157.002C86.5925 156.048 84.6315 155.571 82.3348 155.571C80.0028 155.571 78.0241 156.048 76.3988 157.002C74.8088 157.921 73.5898 159.281 72.7418 161.083C71.9291 162.85 71.5228 165.04 71.5228 167.655C71.5228 170.27 71.9291 172.478 72.7418 174.28C73.5898 176.047 74.8088 177.407 76.3988 178.361C78.0241 179.28 80.0028 179.739 82.3348 179.739ZM107.785 187V148.31H120.081C125.982 148.31 130.381 149.441 133.278 151.702C136.211 153.963 137.677 157.391 137.677 161.984C137.677 166.436 136.299 169.828 133.543 172.16C130.787 174.457 126.741 175.605 121.406 175.605H112.29V168.185H120.293C123.12 168.185 125.187 167.69 126.494 166.701C127.801 165.712 128.455 164.139 128.455 161.984C128.455 159.829 127.801 158.256 126.494 157.267C125.187 156.242 123.12 155.73 120.293 155.73H116.795V187H107.785ZM158.152 187.53C152.852 187.53 148.842 186.329 146.121 183.926C143.436 181.523 142.093 178.008 142.093 173.379V148.31H151.103V171.63C151.103 174.633 151.633 176.736 152.693 177.937C153.753 179.138 155.573 179.739 158.152 179.739C160.731 179.739 162.551 179.138 163.611 177.937C164.671 176.736 165.201 174.633 165.201 171.63V148.31H174.211V173.379C174.211 178.008 172.851 181.523 170.13 183.926C167.445 186.329 163.452 187.53 158.152 187.53ZM181.126 187V148.31H190.401V179.209H209.587V187H181.126ZM213.141 187L225.808 148.31H237.998L250.612 187H240.701L231.956 155.995H231.85L223.052 187H213.141ZM221.409 178.997V171.418H242.344V178.997H221.409ZM254.622 187V148.31H267.448C273.278 148.31 277.571 149.299 280.327 151.278C283.118 153.257 284.514 156.313 284.514 160.447C284.514 164.51 283.224 167.602 280.645 169.722C278.066 171.807 274.267 172.849 269.25 172.849H259.127V166.012H267.872C270.451 166.012 272.324 165.606 273.49 164.793C274.691 163.98 275.292 162.673 275.292 160.871C275.292 159.069 274.691 157.762 273.49 156.949C272.324 156.136 270.451 155.73 267.872 155.73H263.632V187H254.622ZM276.67 187L261.671 169.563H271.635L286.952 187H276.67Z" fill="white"/>
<path d="M90.7038 599L63.9838 482.2H84.4638L103.184 572.76H103.504L122.384 491.8H146.864L165.744 572.76H166.064L184.784 482.2H205.264L178.544 599H154.224L134.864 518.04H134.544L115.184 599H90.7038ZM203.92 599L245.36 482.2H272.4L313.68 599H291.76L258.96 499.16H258.64L225.84 599H203.92ZM226.64 571V553.24H291.12V571H226.64ZM343.325 599V499.96H304.765V482.2H402.685V499.96H363.965V599H343.325ZM420.273 599V482.2H498.353V499.48H440.273V529.56H495.153V546.52H440.273V581.72H498.353V599H420.273ZM521.679 599V482.2H557.679C574.959 482.2 587.599 485.027 595.599 490.68C603.705 496.333 607.759 505.24 607.759 517.4C607.759 529.347 603.919 538.307 596.239 544.28C588.559 550.253 576.985 553.24 561.519 553.24H531.599V536.6H558.639C568.772 536.6 576.079 535.16 580.559 532.28C585.145 529.4 587.439 524.707 587.439 518.2C587.439 511.693 585.145 507 580.559 504.12C576.079 501.24 568.772 499.8 558.639 499.8H541.679V599H521.679ZM589.519 599L538.479 545.72H562.639L614.479 599H589.519ZM231.366 831V714.2H256.486L288.646 784.28H288.966L321.126 714.2H346.246V831H326.246V745.72H325.926L298.086 806.2H279.526L251.686 745.72H251.366V831H231.366ZM372.148 831V714.2H450.228V731.48H392.148V761.56H447.028V778.52H392.148V813.72H450.228V831H372.148Z" fill="white"/>
<path d="M796.806 297V203.56H813.19V282.792H862.854V297H796.806ZM877.806 297V203.56H940.27V217.384H893.806V241.448H937.71V255.016H893.806V283.176H940.27V297H877.806ZM722.873 482V402.768H692.025V388.56H770.361V402.768H739.385V482H722.873ZM784.431 482V388.56H813.231C827.055 388.56 837.167 390.821 843.567 395.344C850.052 399.867 853.295 406.992 853.295 416.72C853.295 426.277 850.223 433.445 844.079 438.224C837.935 443.003 828.676 445.392 816.303 445.392H792.367V432.08H813.999C822.105 432.08 827.951 430.928 831.535 428.624C835.204 426.32 837.039 422.565 837.039 417.36C837.039 412.155 835.204 408.4 831.535 406.096C827.951 403.792 822.105 402.64 813.999 402.64H800.431V482H784.431ZM838.702 482L797.871 439.376H817.199L858.671 482H838.702ZM908.539 483.28C896.251 483.28 886.907 480.421 880.507 474.704C874.107 468.987 870.907 460.667 870.907 449.744V388.56H886.907V446.8C886.907 454.651 888.613 460.325 892.027 463.824C895.44 467.323 900.944 469.072 908.539 469.072C916.048 469.072 921.509 467.323 924.923 463.824C928.336 460.325 930.043 454.651 930.043 446.8V388.56H946.043V449.744C946.043 460.667 942.843 468.987 936.443 474.704C930.128 480.421 920.827 483.28 908.539 483.28ZM1009.58 483.28C999.427 483.28 990.68 481.36 983.342 477.52C976.003 473.68 970.371 468.176 966.446 461.008C962.606 453.84 960.686 445.264 960.686 435.28C960.686 425.211 962.606 416.635 966.446 409.552C970.371 402.384 976.003 396.88 983.342 393.04C990.68 389.2 999.427 387.28 1009.58 387.28C1021.19 387.28 1031.47 389.797 1040.43 394.832L1036.72 408.912C1028.01 403.963 1019.14 401.488 1010.09 401.488C1003.35 401.488 997.507 402.853 992.558 405.584C987.608 408.229 983.811 412.069 981.166 417.104C978.52 422.139 977.198 428.197 977.198 435.28C977.198 442.277 978.52 448.336 981.166 453.456C983.811 458.491 987.608 462.373 992.558 465.104C997.507 467.749 1003.35 469.072 1010.09 469.072C1018.88 469.072 1027.76 466.597 1036.72 461.648L1040.43 475.728C1031.47 480.763 1021.19 483.28 1009.58 483.28Z" fill="white"/>
<path d="M1103.13 791.28C1092.55 791.28 1083.46 789.36 1075.86 785.52C1068.27 781.68 1062.42 776.176 1058.33 769.008C1054.32 761.84 1052.31 753.264 1052.31 743.28C1052.31 733.296 1054.32 724.72 1058.33 717.552C1062.34 710.384 1068.05 704.88 1075.48 701.04C1082.99 697.2 1091.91 695.28 1102.23 695.28C1107.95 695.28 1113.37 695.92 1118.49 697.2C1123.61 698.395 1128.17 700.229 1132.18 702.704L1128.47 716.144C1124.89 714.011 1120.79 712.389 1116.18 711.28C1111.57 710.085 1106.92 709.488 1102.23 709.488C1095.32 709.488 1089.39 710.811 1084.44 713.456C1079.57 716.101 1075.82 719.941 1073.17 724.976C1070.61 730.011 1069.33 736.112 1069.33 743.28C1069.33 750.448 1070.61 756.549 1073.17 761.584C1075.82 766.619 1079.66 770.459 1084.69 773.104C1089.81 775.749 1095.96 777.072 1103.13 777.072C1106.88 777.072 1110.51 776.731 1114.01 776.048C1117.51 775.28 1120.66 774.171 1123.48 772.72L1121.3 777.84V749.04H1091.61V735.6H1137.17V783.984C1132.65 786.288 1127.36 788.08 1121.3 789.36C1115.33 790.64 1109.27 791.28 1103.13 791.28ZM1156.43 790V696.56H1218.89V710.384H1172.43V734.448H1216.33V748.016H1172.43V776.176H1218.89V790H1156.43ZM1237.56 790V696.56H1254.58L1296.44 763.632H1296.69V696.56H1312.56V790H1295.54L1253.81 722.928H1253.56V790H1237.56Z" fill="white"/>
<path d="M1257.24 300V224.81H1307.51V235.934H1270.12V255.298H1305.45V266.216H1270.12V288.876H1307.51V300H1257.24ZM1318.61 300L1341.37 262.199L1318.81 224.81H1333.44L1350.74 254.886H1350.95L1368.25 224.81H1382.88L1360.32 262.199L1383.09 300H1368.56L1350.95 269.512H1350.74L1333.13 300H1318.61ZM1395.85 300V224.81H1417.99C1429.26 224.81 1437.6 226.904 1443.02 231.093C1448.52 235.213 1451.26 241.599 1451.26 250.251C1451.26 258.697 1448.65 265.049 1443.44 269.306C1438.22 273.495 1430.35 275.589 1419.85 275.589H1402.24V264.259H1418.3C1425.24 264.259 1430.29 263.16 1433.44 260.963C1436.6 258.697 1438.18 255.126 1438.18 250.251C1438.18 245.307 1436.6 241.736 1433.44 239.539C1430.29 237.273 1425.24 236.14 1418.3 236.14H1408.72V300H1395.85ZM1497.25 301.03C1489.35 301.03 1482.48 299.451 1476.65 296.292C1470.88 293.133 1466.42 288.67 1463.26 282.902C1460.1 277.134 1458.52 270.302 1458.52 262.405C1458.52 254.508 1460.1 247.676 1463.26 241.908C1466.42 236.14 1470.88 231.677 1476.65 228.518C1482.48 225.359 1489.35 223.78 1497.25 223.78C1505.21 223.78 1512.08 225.359 1517.85 228.518C1523.61 231.677 1528.08 236.14 1531.24 241.908C1534.4 247.676 1535.97 254.508 1535.97 262.405C1535.97 270.302 1534.4 277.134 1531.24 282.902C1528.08 288.67 1523.61 293.133 1517.85 296.292C1512.08 299.451 1505.21 301.03 1497.25 301.03ZM1497.25 289.597C1502.53 289.597 1507.07 288.498 1510.84 286.301C1514.69 284.104 1517.64 280.979 1519.7 276.928C1521.76 272.877 1522.79 268.036 1522.79 262.405C1522.79 256.774 1521.76 251.933 1519.7 247.882C1517.64 243.831 1514.69 240.706 1510.84 238.509C1507.07 236.312 1502.53 235.213 1497.25 235.213C1491.89 235.213 1487.29 236.312 1483.44 238.509C1479.67 240.706 1476.75 243.831 1474.69 247.882C1472.7 251.933 1471.7 256.774 1471.7 262.405C1471.7 268.036 1472.7 272.877 1474.69 276.928C1476.75 280.979 1479.67 284.104 1483.44 286.301C1487.29 288.498 1491.89 289.597 1497.25 289.597ZM1325.24 450.03C1316.73 450.03 1309.42 448.485 1303.31 445.395C1297.19 442.305 1292.49 437.876 1289.19 432.108C1285.97 426.34 1284.35 419.439 1284.35 411.405C1284.35 403.371 1285.97 396.47 1289.19 390.702C1292.42 384.934 1297.02 380.505 1303 377.415C1309.04 374.325 1316.22 372.78 1324.52 372.78C1329.12 372.78 1333.48 373.295 1337.6 374.325C1341.72 375.286 1345.4 376.763 1348.63 378.754L1345.64 389.569C1342.75 387.852 1339.46 386.548 1335.75 385.655C1332.04 384.694 1328.3 384.213 1324.52 384.213C1318.96 384.213 1314.19 385.277 1310.21 387.406C1306.29 389.535 1303.27 392.625 1301.14 396.676C1299.08 400.727 1298.05 405.637 1298.05 411.405C1298.05 417.173 1299.08 422.083 1301.14 426.134C1303.27 430.185 1306.36 433.275 1310.41 435.404C1314.53 437.533 1319.48 438.597 1325.24 438.597C1328.27 438.597 1331.18 438.322 1334 437.773C1336.82 437.155 1339.36 436.262 1341.62 435.095L1339.87 439.215V416.04H1315.97V405.225H1352.64V444.159C1349 446.013 1344.75 447.455 1339.87 448.485C1335.06 449.515 1330.19 450.03 1325.24 450.03ZM1368.14 449V373.81H1418.4V384.934H1381.01V404.298H1416.34V415.216H1381.01V437.876H1418.4V449H1368.14ZM1467.02 450.03C1459.12 450.03 1452.26 448.451 1446.42 445.292C1440.65 442.133 1436.19 437.67 1433.03 431.902C1429.87 426.134 1428.29 419.302 1428.29 411.405C1428.29 403.508 1429.87 396.676 1433.03 390.908C1436.19 385.14 1440.65 380.677 1446.42 377.518C1452.26 374.359 1459.12 372.78 1467.02 372.78C1474.99 372.78 1481.85 374.359 1487.62 377.518C1493.39 380.677 1497.85 385.14 1501.01 390.908C1504.17 396.676 1505.75 403.508 1505.75 411.405C1505.75 419.302 1504.17 426.134 1501.01 431.902C1497.85 437.67 1493.39 442.133 1487.62 445.292C1481.85 448.451 1474.99 450.03 1467.02 450.03ZM1467.02 438.597C1472.31 438.597 1476.84 437.498 1480.62 435.301C1484.46 433.104 1487.41 429.979 1489.47 425.928C1491.53 421.877 1492.56 417.036 1492.56 411.405C1492.56 405.774 1491.53 400.933 1489.47 396.882C1487.41 392.831 1484.46 389.706 1480.62 387.509C1476.84 385.312 1472.31 384.213 1467.02 384.213C1461.66 384.213 1457.06 385.312 1453.22 387.509C1449.44 389.706 1446.52 392.831 1444.46 396.882C1442.47 400.933 1441.48 405.774 1441.48 411.405C1441.48 417.036 1442.47 421.877 1444.46 425.928C1446.52 429.979 1449.44 433.104 1453.22 435.301C1457.06 437.498 1461.66 438.597 1467.02 438.597Z" fill="white"/>
</svg>
