<svg width="960" height="415" viewBox="0 0 960 415" fill="none" xmlns="http://www.w3.org/2000/svg">
<path fill-rule="evenodd" clip-rule="evenodd" d="M0 0H960V415H0V0ZM38.7145 157.174V20.6764H83.9607C104.527 20.6764 119.672 24.1668 129.394 31.1474C139.241 38.1281 144.164 48.9108 144.164 63.4954C144.164 77.8307 139.615 88.738 130.516 96.2173C124.674 100.939 117.059 104.145 107.672 105.836L152.765 157.174H116.493L73.5524 107.249H70.499V157.174H38.7145ZM85.4564 83.1285H70.499V46.854H85.4564C94.5555 46.854 101.162 48.2875 105.275 51.1546C109.513 54.0216 111.632 58.6338 111.632 64.9912C111.632 71.3486 109.513 75.9609 105.275 78.8279C101.162 81.695 94.5555 83.1285 85.4564 83.1285ZM233.402 159.043C218.694 159.043 206.042 156.239 195.448 150.629C184.853 145.02 176.688 136.979 170.955 126.508C165.346 116.037 162.541 103.51 162.541 88.925C162.541 74.3404 165.346 61.8125 170.955 51.3415C176.688 40.8705 184.853 32.8303 195.448 27.2208C206.042 21.6114 218.694 18.8066 233.402 18.8066C248.11 18.8066 260.699 21.6114 271.169 27.2208C281.764 32.8303 289.866 40.8705 295.475 51.3415C301.209 61.8125 304.076 74.3404 304.076 88.925C304.076 103.51 301.209 116.037 295.475 126.508C289.866 136.979 281.764 145.02 271.169 150.629C260.699 156.239 248.11 159.043 233.402 159.043ZM233.402 131.557C241.504 131.557 248.422 129.936 254.155 126.695C259.889 123.33 264.189 118.531 267.056 112.298C270.048 105.94 271.543 98.1494 271.543 88.925C271.543 79.7005 270.048 71.9719 267.056 65.7392C264.189 59.3818 259.889 54.5826 254.155 51.3415C248.422 47.9758 241.504 46.293 233.402 46.293C225.175 46.293 218.195 47.9758 212.462 51.3415C206.853 54.5826 202.552 59.3818 199.561 65.7392C196.694 71.9719 195.261 79.7005 195.261 88.925C195.261 98.1494 196.694 105.94 199.561 112.298C202.552 118.531 206.853 123.33 212.462 126.695C218.195 129.936 225.175 131.557 233.402 131.557ZM323.183 20.6764H366.933C390.99 20.6764 408.627 26.1613 419.845 37.1309C431.063 47.9759 436.672 65.2406 436.672 88.925C436.672 112.609 431.063 129.936 419.845 140.906C408.627 151.751 390.99 157.174 366.933 157.174H323.183V20.6764ZM368.803 130.996C377.528 130.996 384.446 129.687 389.557 127.069C394.792 124.452 398.531 120.026 400.775 113.794C403.018 107.561 404.14 99.2713 404.14 88.925C404.14 78.454 403.018 70.1644 400.775 64.0563C398.531 57.8236 394.792 53.3983 389.557 50.7806C384.446 48.1628 377.528 46.854 368.803 46.854H354.967V130.996H368.803ZM455.74 20.6764H500.986C521.553 20.6764 536.697 24.1668 546.42 31.1474C556.267 38.1281 561.19 48.9108 561.19 63.4954C561.19 77.8307 556.64 88.738 547.541 96.2173C541.699 100.939 534.085 104.145 524.698 105.836L569.791 157.174H533.519L490.578 107.249H487.525V157.174H455.74V20.6764ZM502.482 83.1285H487.525V46.854H502.482C511.581 46.854 518.187 48.2875 522.301 51.1546C526.539 54.0216 528.658 58.6338 528.658 64.9912C528.658 71.3486 526.539 75.9609 522.301 78.8279C518.187 81.695 511.581 83.1285 502.482 83.1285ZM589.058 20.6764H622.339V157.174H589.058V20.6764ZM718.459 159.043C702.754 159.043 689.23 156.301 677.887 150.816C666.669 145.207 658.006 137.166 651.899 126.695C645.916 116.224 642.924 103.634 642.924 88.925C642.924 74.2157 645.853 61.6879 651.712 51.3415C657.695 40.8705 666.17 32.8303 677.139 27.2208C688.233 21.6114 701.445 18.8066 716.776 18.8066C725.252 18.8066 733.167 19.6792 740.521 21.4244C748 23.1695 754.731 25.8496 760.714 29.4646L753.796 55.2682C748.935 52.2765 743.139 49.908 736.408 48.1628C729.802 46.4177 723.258 45.5451 716.776 45.5451C708.176 45.5451 700.884 47.2279 694.901 50.5936C688.918 53.9593 684.369 58.8832 681.252 65.3652C678.136 71.7226 676.578 79.5759 676.578 88.925C676.578 98.3987 678.136 106.377 681.252 112.859C684.493 119.216 689.23 124.078 695.462 127.443C701.694 130.684 709.36 132.305 718.459 132.305C722.822 132.305 726.81 131.931 730.425 131.183C732.74 130.643 734.984 129.935 737.156 129.06V101.827H701.819V75.2753H768.94V148.011C762.085 151.502 754.232 154.244 745.382 156.239C736.657 158.108 727.683 159.043 718.459 159.043ZM856.932 159.043C842.224 159.043 829.572 156.239 818.978 150.629C808.383 145.02 800.219 136.979 794.485 126.508C788.876 116.037 786.071 103.51 786.071 88.925C786.071 74.3404 788.876 61.8125 794.485 51.3415C800.219 40.8705 808.383 32.8303 818.978 27.2208C829.572 21.6114 842.224 18.8066 856.932 18.8066C871.64 18.8066 884.229 21.6114 894.7 27.2208C905.294 32.8303 913.396 40.8705 919.005 51.3415C924.739 61.8125 927.606 74.3404 927.606 88.925C927.606 103.51 924.739 116.037 919.005 126.508C913.396 136.979 905.294 145.02 894.7 150.629C884.229 156.239 871.64 159.043 856.932 159.043ZM856.932 131.557C865.034 131.557 871.952 129.936 877.685 126.695C883.419 123.33 887.719 118.531 890.586 112.298C893.578 105.94 895.073 98.1494 895.073 88.925C895.073 79.7005 893.578 71.9719 890.586 65.7392C887.719 59.3818 883.419 54.5826 877.685 51.3415C871.952 47.9758 865.034 46.293 856.932 46.293C848.705 46.293 841.725 47.9758 835.992 51.3415C830.383 54.5826 826.082 59.3818 823.091 65.7392C820.224 71.9719 818.791 79.7005 818.791 88.925C818.791 98.1494 820.224 105.94 823.091 112.298C826.082 118.531 830.383 123.33 835.992 126.695C841.725 129.936 848.705 131.557 856.932 131.557ZM60.6793 347.332C71.7703 352.941 85.1562 355.746 100.837 355.746C118.557 355.746 134.237 352.113 147.878 344.846L140.612 316.925C127.226 324.064 114.35 327.634 101.984 327.634C93.3151 327.634 85.8573 325.913 79.6106 322.47C73.4914 319.028 68.7745 314.056 65.4599 307.554C62.1453 301.052 60.488 293.211 60.488 284.031C60.488 274.724 62.1453 266.883 65.4599 260.508C68.7745 254.006 73.4914 249.034 79.6106 245.592C85.8573 242.149 93.3151 240.428 101.984 240.428C114.477 240.428 127.353 243.998 140.612 251.138L147.878 223.217C134.237 215.949 118.557 212.316 100.837 212.316C85.1562 212.316 71.7703 215.121 60.6793 220.73C49.5882 226.34 41.1105 234.5 35.2462 245.209C29.5094 255.791 26.6411 268.732 26.6411 284.031C26.6411 299.203 29.5094 312.143 35.2462 322.853C41.1105 333.562 49.5882 341.722 60.6793 347.332ZM206.174 347.141C217.01 352.878 229.949 355.746 244.993 355.746C260.036 355.746 272.912 352.878 283.62 347.141C294.456 341.403 302.743 333.18 308.48 322.47C314.344 311.761 317.276 298.948 317.276 284.031C317.276 269.114 314.344 256.301 308.48 245.592C302.743 234.882 294.456 226.659 283.62 220.922C272.912 215.184 260.036 212.316 244.993 212.316C229.949 212.316 217.01 215.184 206.174 220.922C195.338 226.659 186.987 234.882 181.123 245.592C175.386 256.301 172.518 269.114 172.518 284.031C172.518 298.948 175.386 311.761 181.123 322.47C186.987 333.18 195.338 341.403 206.174 347.141ZM266.219 322.662C260.354 325.977 253.279 327.634 244.993 327.634C236.579 327.634 229.44 325.977 223.575 322.662C217.838 319.219 213.44 314.311 210.381 307.936C207.449 301.434 205.982 293.466 205.982 284.031C205.982 274.597 207.449 266.692 210.381 260.317C213.44 253.815 217.838 248.907 223.575 245.592C229.44 242.149 236.579 240.428 244.993 240.428C253.279 240.428 260.354 242.149 266.219 245.592C272.083 248.907 276.481 253.815 279.413 260.317C282.473 266.692 284.003 274.597 284.003 284.031C284.003 293.466 282.473 301.434 279.413 307.936C276.481 314.311 272.083 319.219 266.219 322.662ZM452.319 214.228H354.029V353.834H452.319V327.251H386.537V294.549H448.494V268.732H386.537V240.811H452.319V214.228ZM526.647 214.228H493.183V353.834H595.871V325.722H526.647V214.228ZM712.67 295.697V353.834H745.178V214.228H712.67V267.584H664.098V214.228H631.59V353.834H664.098V295.697H712.67ZM815.639 347.141C826.475 352.878 839.415 355.746 854.458 355.746C869.501 355.746 882.377 352.878 893.085 347.141C903.921 341.403 912.208 333.18 917.945 322.47C923.809 311.761 926.741 298.948 926.741 284.031C926.741 269.114 923.809 256.301 917.945 245.592C912.208 234.882 903.921 226.659 893.085 220.922C882.377 215.184 869.501 212.316 854.458 212.316C839.415 212.316 826.475 215.184 815.639 220.922C804.803 226.659 796.452 234.882 790.588 245.592C784.851 256.301 781.983 269.114 781.983 284.031C781.983 298.948 784.851 311.761 790.588 322.47C796.452 333.18 804.803 341.403 815.639 347.141ZM875.684 322.662C869.819 325.977 862.744 327.634 854.458 327.634C846.044 327.634 838.905 325.977 833.04 322.662C827.303 319.219 822.905 314.311 819.846 307.936C816.914 301.434 815.447 293.466 815.447 284.031C815.447 274.597 816.914 266.692 819.846 260.317C822.905 253.815 827.303 248.907 833.04 245.592C838.905 242.149 846.044 240.428 854.458 240.428C862.744 240.428 869.819 242.149 875.684 245.592C881.548 248.907 885.946 253.815 888.878 260.317C891.938 266.692 893.468 274.597 893.468 284.031C893.468 293.466 891.938 301.434 888.878 307.936C885.946 314.311 881.548 319.219 875.684 322.662Z" fill="#1820EF"/>
<path d="M108.395 208V167.12H134.491V168.968H110.355V186.72H133.371V188.512H110.355V208H108.395ZM162.433 208.56C157.43 208.56 153.622 207.365 151.009 204.976C148.395 202.549 147.089 199.04 147.089 194.448V167.12H149.049V194.28C149.049 198.424 150.169 201.541 152.409 203.632C154.649 205.685 157.99 206.712 162.433 206.712C166.875 206.712 170.198 205.685 172.401 203.632C174.641 201.541 175.761 198.424 175.761 194.28V167.12H177.721V194.448C177.721 199.04 176.414 202.549 173.801 204.976C171.187 207.365 167.398 208.56 162.433 208.56ZM193.194 208V167.12H195.154V206.152H219.85V208H193.194ZM232.941 208V167.12H234.901V206.152H259.597V208H232.941ZM281.699 208.56C279.421 208.56 277.107 208.317 274.755 207.832C272.403 207.347 270.387 206.712 268.707 205.928L269.379 204.192C270.424 204.715 271.637 205.163 273.019 205.536C274.4 205.909 275.837 206.208 277.331 206.432C278.861 206.619 280.336 206.712 281.755 206.712C285.675 206.712 288.699 205.928 290.827 204.36C292.955 202.755 294.019 200.515 294.019 197.64C294.019 195.96 293.683 194.579 293.011 193.496C292.339 192.413 291.424 191.536 290.267 190.864C289.147 190.155 287.84 189.557 286.347 189.072C284.891 188.587 283.36 188.12 281.755 187.672C280.112 187.261 278.525 186.795 276.995 186.272C275.464 185.749 274.083 185.096 272.851 184.312C271.656 183.491 270.685 182.483 269.939 181.288C269.229 180.056 268.875 178.544 268.875 176.752C268.875 173.504 270.088 171.003 272.515 169.248C274.979 167.456 278.357 166.56 282.651 166.56C284.891 166.56 287.131 166.803 289.371 167.288C291.648 167.736 293.533 168.333 295.027 169.08L294.299 170.816C292.917 170.069 291.163 169.491 289.035 169.08C286.907 168.632 284.779 168.408 282.651 168.408C278.88 168.408 275.968 169.136 273.915 170.592C271.899 172.048 270.891 174.101 270.891 176.752C270.891 178.283 271.189 179.552 271.787 180.56C272.421 181.568 273.28 182.408 274.363 183.08C275.445 183.715 276.696 184.256 278.115 184.704C279.533 185.152 281.027 185.6 282.595 186.048C284.275 186.496 285.899 187 287.467 187.56C289.072 188.083 290.509 188.773 291.779 189.632C293.048 190.453 294.056 191.517 294.803 192.824C295.587 194.093 295.979 195.699 295.979 197.64C295.979 201.075 294.709 203.763 292.171 205.704C289.669 207.608 286.179 208.56 281.699 208.56ZM319.819 208V168.968H303.971V167.12H337.627V168.968H321.779V208H319.819ZM338.288 208L355.032 167.12H357.72L374.464 208H372.336L356.432 168.856H356.32L340.416 208H338.288ZM344.672 195.232V193.384H368.08V195.232H344.672ZM401.916 208.56C397.735 208.56 394.076 207.701 390.94 205.984C387.841 204.229 385.433 201.784 383.716 198.648C381.999 195.512 381.14 191.816 381.14 187.56C381.14 183.304 381.999 179.608 383.716 176.472C385.433 173.336 387.841 170.909 390.94 169.192C394.076 167.437 397.735 166.56 401.916 166.56C406.807 166.56 411.137 167.755 414.908 170.144L414.18 171.824C410.521 169.547 406.433 168.408 401.916 168.408C398.108 168.408 394.785 169.192 391.948 170.76C389.148 172.328 386.964 174.549 385.396 177.424C383.865 180.299 383.1 183.677 383.1 187.56C383.1 191.405 383.865 194.784 385.396 197.696C386.964 200.571 389.148 202.792 391.948 204.36C394.785 205.928 398.108 206.712 401.916 206.712C406.433 206.712 410.521 205.573 414.18 203.296L414.908 204.976C411.137 207.365 406.807 208.56 401.916 208.56ZM429.706 208V167.12H431.666V185.32H431.778L457.034 167.12H459.946L433.402 186.216L460.506 208H457.706L431.778 187.168H431.666V208H429.706ZM493.177 208V167.12H502.025C509.155 167.12 514.55 168.856 518.209 172.328C521.905 175.763 523.753 180.84 523.753 187.56C523.753 194.28 521.905 199.376 518.209 202.848C514.55 206.283 509.155 208 502.025 208H493.177ZM502.081 206.152C506.486 206.152 510.145 205.461 513.057 204.08C515.969 202.699 518.153 200.627 519.609 197.864C521.065 195.101 521.793 191.667 521.793 187.56C521.793 183.416 521.065 179.981 519.609 177.256C518.153 174.493 515.969 172.421 513.057 171.04C510.145 169.659 506.486 168.968 502.081 168.968H495.137V206.152H502.081ZM536.861 208V167.12H561.389V168.968H538.821V185.32H560.269V187.112H538.821V206.152H561.389V208H536.861ZM587.989 208L571.301 167.12H573.429L589.277 206.152H589.389L605.237 167.12H607.365L590.677 208H587.989ZM618.652 208V167.12H643.18V168.968H620.612V185.32H642.06V187.112H620.612V206.152H643.18V208H618.652ZM657.852 208V167.12H659.812V206.152H684.508V208H657.852ZM709.5 208.56C705.356 208.56 701.716 207.683 698.58 205.928C695.482 204.136 693.055 201.672 691.3 198.536C689.583 195.363 688.724 191.704 688.724 187.56C688.724 183.379 689.583 179.72 691.3 176.584C693.055 173.448 695.482 171.003 698.58 169.248C701.716 167.456 705.356 166.56 709.5 166.56C713.644 166.56 717.266 167.456 720.364 169.248C723.5 171.003 725.927 173.448 727.644 176.584C729.399 179.72 730.276 183.379 730.276 187.56C730.276 191.704 729.399 195.363 727.644 198.536C725.927 201.672 723.5 204.136 720.364 205.928C717.266 207.683 713.644 208.56 709.5 208.56ZM709.5 206.712C713.271 206.712 716.556 205.928 719.356 204.36C722.194 202.755 724.396 200.515 725.964 197.64C727.532 194.765 728.316 191.405 728.316 187.56C728.316 183.715 727.532 180.355 725.964 177.48C724.396 174.605 722.194 172.384 719.356 170.816C716.556 169.211 713.271 168.408 709.5 168.408C705.767 168.408 702.482 169.211 699.644 170.816C696.807 172.384 694.604 174.605 693.036 177.48C691.468 180.355 690.684 183.715 690.684 187.56C690.684 191.405 691.468 194.765 693.036 197.64C694.604 200.515 696.807 202.755 699.644 204.36C702.482 205.928 705.767 206.712 709.5 206.712ZM743.361 208V167.12H753.553C759.489 167.12 763.82 168.128 766.545 170.144C769.308 172.123 770.689 175.296 770.689 179.664C770.689 183.995 769.326 187.168 766.601 189.184C763.876 191.163 759.582 192.152 753.721 192.152H744.313V190.304H753.609C758.948 190.304 762.793 189.483 765.145 187.84C767.534 186.16 768.729 183.435 768.729 179.664C768.729 175.893 767.534 173.168 765.145 171.488C762.793 169.808 758.948 168.968 753.609 168.968H745.321V208H743.361ZM782.67 208V167.12H807.198V168.968H784.63V185.32H806.078V187.112H784.63V206.152H807.198V208H782.67ZM821.87 208V167.12H832.622C838.409 167.12 842.609 168.016 845.222 169.808C847.873 171.6 849.198 174.493 849.198 178.488C849.198 182.445 847.892 185.339 845.278 187.168C842.665 188.96 838.521 189.856 832.846 189.856H822.822V188.064H832.678C837.868 188.064 841.582 187.317 843.822 185.824C846.1 184.293 847.238 181.848 847.238 178.488C847.238 175.128 846.1 172.701 843.822 171.208C841.582 169.715 837.868 168.968 832.678 168.968H823.83V208H821.87ZM848.19 208L824.67 189.016H827.414L850.99 208H848.19Z" fill="#FF4F42"/>
</svg>
