<svg width="1920" height="1080" viewBox="0 0 1920 1080" fill="none" xmlns="http://www.w3.org/2000/svg">
<path fill-rule="evenodd" clip-rule="evenodd" d="M1920 0H0V1080H1920V0ZM1023.17 433V136.89H920V47H1229V136.89H1125.83V433H1023.17ZM106 412.621V68H212.261C261.732 68 298.762 78.5432 323.351 99.6296C348.233 120.401 360.674 151.559 360.674 193.102C360.674 233.701 349.112 264.702 325.986 286.103C302.86 307.504 269.489 318.204 225.873 318.204H193.819V412.621H106ZM214.456 242.671H193.819V143.533H214.456C233.776 143.533 247.974 147.625 257.048 155.808C266.123 163.676 270.66 176.107 270.66 193.102C270.66 210.097 266.123 222.686 257.048 230.869C247.974 238.737 233.776 242.671 214.456 242.671ZM535.925 584.621C499.406 584.621 467.95 577.882 441.558 564.403C415.472 550.618 395.525 530.86 381.715 505.128C367.905 479.397 361 448.457 361 412.311C361 376.164 367.905 345.224 381.715 319.493C395.525 293.761 415.472 274.156 441.558 260.677C467.95 246.892 499.406 240 535.925 240C572.752 240 604.208 246.892 630.293 260.677C656.378 274.156 676.326 293.761 690.136 319.493C703.946 345.224 710.851 376.164 710.851 412.311C710.851 448.457 703.946 479.397 690.136 505.128C676.326 530.86 656.378 550.618 630.293 564.403C604.208 577.882 572.752 584.621 535.925 584.621ZM535.925 506.507C553.725 506.507 568.609 502.984 580.577 495.939C592.546 488.893 601.445 478.478 607.276 464.693C613.414 450.602 616.483 433.141 616.483 412.311C616.483 391.48 613.414 374.172 607.276 360.388C601.445 346.296 592.546 335.728 580.577 328.682C568.609 321.637 553.725 318.114 535.925 318.114C518.126 318.114 503.242 321.637 491.273 328.682C479.305 335.728 470.252 346.296 464.114 360.388C458.283 374.172 455.368 391.48 455.368 412.311C455.368 433.141 458.283 450.602 464.114 464.693C470.252 478.478 479.305 488.893 491.273 495.939C503.242 502.984 518.126 506.507 535.925 506.507ZM722 128V319H774.063V252.542H776.359L828.73 319H886L829.024 248.865C838.852 246.167 847.084 241.986 853.721 236.321C866.563 225.506 872.984 209.895 872.984 189.486C872.984 168.729 865.956 153.292 851.898 143.175C838.015 133.058 816.582 128 787.6 128H722ZM774.063 214.342H790.203C800.442 214.342 807.905 212.598 812.59 209.11C817.276 205.447 819.619 199.778 819.619 192.103C819.619 184.428 817.276 178.846 812.59 175.358C807.905 171.695 800.442 169.863 790.203 169.863H774.063V214.342ZM1229 237V585H1324.19V456.288H1476.48V380.014H1324.19V315.658H1486V237H1229ZM1648.83 299.336C1628.61 299.336 1611.2 295.594 1596.59 288.111C1582.15 280.458 1571.11 269.488 1563.47 255.201C1555.82 240.915 1552 223.737 1552 203.668C1552 183.599 1555.82 166.421 1563.47 152.135C1571.11 137.848 1582.15 126.964 1596.59 119.48C1611.2 111.827 1628.61 108 1648.83 108C1669.21 108 1686.62 111.827 1701.06 119.48C1715.5 126.964 1726.54 137.848 1734.19 152.135C1741.83 166.421 1745.66 183.599 1745.66 203.668C1745.66 223.737 1741.83 240.915 1734.19 255.201C1726.54 269.488 1715.5 280.458 1701.06 288.111C1686.62 295.594 1669.21 299.336 1648.83 299.336ZM1648.83 255.967C1658.68 255.967 1666.92 254.011 1673.54 250.099C1680.17 246.187 1685.1 240.405 1688.32 232.751C1691.72 224.928 1693.42 215.233 1693.42 203.668C1693.42 192.103 1691.72 182.494 1688.32 174.84C1685.1 167.017 1680.17 161.149 1673.54 157.237C1666.92 153.325 1658.68 151.37 1648.83 151.37C1638.98 151.37 1630.74 153.325 1624.11 157.237C1617.49 161.149 1612.47 167.017 1609.08 174.84C1605.85 182.494 1604.24 192.103 1604.24 203.668C1604.24 215.233 1605.85 224.928 1609.08 232.751C1612.47 240.405 1617.49 246.187 1624.11 250.099C1630.74 254.011 1638.98 255.967 1648.83 255.967ZM291 629V1032H638V938.151H420.336V629H291ZM882 893V514H991V893H882ZM1325.49 1011.24C1355.14 1026.41 1390.48 1034 1431.5 1034C1472.87 1034 1508.2 1026.41 1537.51 1011.24C1566.81 995.717 1589.22 973.472 1604.73 944.501C1620.24 915.531 1628 880.697 1628 840C1628 799.303 1620.24 764.469 1604.73 735.499C1589.22 706.528 1566.81 684.455 1537.51 669.28C1508.2 653.76 1472.87 646 1431.5 646C1390.48 646 1355.14 653.76 1325.49 669.28C1296.19 684.455 1273.78 706.528 1258.27 735.499C1242.76 764.469 1235 799.303 1235 840C1235 880.697 1242.76 915.531 1258.27 944.501C1273.78 973.472 1296.19 995.717 1325.49 1011.24ZM1481.66 934.155C1468.21 942.087 1451.49 946.053 1431.5 946.053C1411.51 946.053 1394.79 942.087 1381.34 934.155C1367.9 926.222 1357.73 914.496 1350.83 898.976C1344.28 883.111 1341.01 863.452 1341.01 840C1341.01 816.548 1344.28 797.061 1350.83 781.541C1357.73 765.676 1367.9 753.778 1381.34 745.845C1394.79 737.913 1411.51 733.947 1431.5 733.947C1451.49 733.947 1468.21 737.913 1481.66 745.845C1495.1 753.778 1505.1 765.676 1511.65 781.541C1518.55 797.061 1521.99 816.548 1521.99 840C1521.99 863.452 1518.55 883.111 1511.65 898.976C1505.1 914.496 1495.1 926.222 1481.66 934.155Z" fill="#1820EF"/>
</svg>
